<svg height="192pt" viewBox="-16 0 192 192" width="192pt" xmlns="http://www.w3.org/2000/svg"><path d="m104 8h-56c0-4.417969-3.582031-8-8-8h-32c-4.417969 0-8 3.582031-8 8v64c0 4.417969 3.582031 8 8 8h32c4.417969 0 8-3.582031 8-8h8v16c0 1.242188.289062 2.46875.84375 3.578125l7.15625 14.3125v86.109375h16v-80h16v80h16v-86.109375l7.15625-14.3125c.554688-1.109375.84375-2.335937.84375-3.578125v-15.199219c10.378906 2.238281 15.917969 8.8125 21.3125 15.210938 2.941406 3.488281 6.066406 8.308593 11.222656 7.96875 4.183594-.316407 7.429688-3.785157 7.464844-7.980469v-24c0-44.207031-35.199219-56-56-56zm-88 56v-48h16v48zm128 3.609375c-7.101562-6.175781-17-11.609375-32-11.609375-4.417969 0-8 3.582031-8 8v22.109375l-4.945312 9.890625h-22.109376l-4.945312-9.890625v-22.109375c0-4.417969-3.582031-8-8-8h-16v-32h56c3.429688 0 15.398438.546875 25.410156 7.554688 9.683594 6.773437 14.589844 17.691406 14.589844 32.445312zm0 0"/></svg>